
<svg width="97" height="102" viewBox="0 0 97 102" fill="none" xmlns="http://www.w3.org/2000/svg">
<path opacity="0.4" d="M93.1922 82.004L73.0416 95.6705C72.0111 96.3695 70.8504 96.8169 69.6416 96.9814C68.4328 97.1459 67.2051 97.0233 66.045 96.6224L43.957 88.9864C42.7897 88.5828 41.5538 88.4613 40.3378 88.6303C39.1219 88.7994 37.9555 89.255 36.9218 89.9645L20.7507 101.067C20.2546 101.404 19.6922 101.612 19.1082 101.674C18.5243 101.737 17.9348 101.652 17.3865 101.427C16.8383 101.202 16.3463 100.843 15.9497 100.378C15.5531 99.9123 15.2627 99.3541 15.1017 98.7472L1.14478 46.1247C0.921013 45.2809 0.957455 44.3817 1.24839 43.562C1.53932 42.7423 2.06939 42.0459 2.75897 41.5772L23.1244 27.7347C24.2535 26.9673 25.5255 26.4756 26.8505 26.2947C28.1755 26.1137 29.5213 26.2477 30.7929 26.6873L52.1762 34.0796C53.4524 34.5208 54.8034 34.6541 56.1329 34.4703C57.4624 34.2865 58.738 33.7899 59.8689 33.016L75.1822 22.5354C75.6784 22.1959 76.2412 21.9858 76.826 21.9214C77.4109 21.8572 78.0016 21.9408 78.5513 22.1652C79.1008 22.3898 79.594 22.7493 79.9916 23.215C80.3892 23.6808 80.6803 24.24 80.8416 24.848L94.7963 77.4632C95.0197 78.3049 94.9841 79.2016 94.6951 80.0199C94.406 80.838 93.8789 81.534 93.1922 82.004Z" fill="#CCCDCF"/>
<path d="M93.979 76.4194L76.772 88.1958C75.641 88.9698 74.3653 89.4664 73.0358 89.6502C71.7062 89.8341 70.3553 89.7006 69.0792 89.2594L47.6945 81.867C46.4229 81.4276 45.0771 81.2935 43.7519 81.4745C42.4269 81.6555 41.155 82.147 40.026 82.9143L21.5368 95.4819C21.0407 95.8191 20.4783 96.0273 19.8944 96.0899C19.3103 96.1526 18.7208 96.0679 18.1726 95.8428C17.6243 95.6178 17.1324 95.2583 16.7358 94.793C16.3392 94.3278 16.0489 93.7697 15.8879 93.1626L1.93107 40.54C1.70717 39.6962 1.74346 38.7972 2.03454 37.9775C2.32548 37.1577 2.85539 36.4614 3.54512 35.9925L23.9095 22.1494C25.0386 21.3821 26.3105 20.8905 27.6355 20.7095C28.9606 20.5285 30.3064 20.6626 31.578 21.1021L52.9626 28.4946C54.2387 28.9358 55.5896 29.0693 56.9192 28.8854C58.2489 28.7016 59.5244 28.2049 60.6554 27.4308L75.9687 16.9504C76.4647 16.611 77.0275 16.4008 77.6123 16.3365C78.1972 16.2723 78.7879 16.3557 79.3375 16.5803C79.8871 16.8049 80.3804 17.1644 80.778 17.6301C81.1757 18.0959 81.4667 18.6549 81.628 19.2629L95.5828 71.878C95.8061 72.7198 95.7707 73.6167 95.4816 74.435C95.1926 75.2534 94.6656 75.9494 93.979 76.4194Z" fill="white"/>
<path d="M45.6418 75.9186L42.4422 66.2096L27.322 71.7768L22.594 57.0439L10.2789 59.6799L18.9133 92.234C18.9515 92.3767 19.032 92.5022 19.1425 92.5913C19.253 92.6803 19.3875 92.7284 19.5256 92.7277C19.6428 92.7273 19.7573 92.69 19.855 92.6205L37.4331 80.6724C37.3567 80.5763 45.6418 75.9186 45.6418 75.9186Z" fill="#EAF4F7"/>
<path d="M93.979 76.4194L76.772 88.1958C75.641 88.9698 74.3653 89.4664 73.0358 89.6502C71.7062 89.8341 70.3553 89.7006 69.0792 89.2594L47.6945 81.867C46.4229 81.4276 45.0771 81.2935 43.7519 81.4745C42.4269 81.6555 41.155 82.147 40.026 82.9143L21.5368 95.4819C21.0407 95.8191 20.4783 96.0273 19.8944 96.0899C19.3103 96.1526 18.7208 96.0679 18.1726 95.8428C17.6243 95.6178 17.1324 95.2583 16.7358 94.793C16.3392 94.3278 16.0489 93.7697 15.8879 93.1626L1.93107 40.54C1.70717 39.6962 1.74346 38.7972 2.03454 37.9775C2.32548 37.1577 2.85539 36.4614 3.54512 35.9925L23.9095 22.1494C25.0386 21.3821 26.3105 20.8905 27.6355 20.7095C28.9606 20.5285 30.3064 20.6626 31.578 21.1021L52.9626 28.4946C54.2387 28.9358 55.5896 29.0693 56.9192 28.8854C58.2489 28.7016 59.5244 28.2049 60.6554 27.4308L75.9687 16.9504C76.4647 16.611 77.0275 16.4008 77.6123 16.3365C78.1972 16.2723 78.788 16.3557 79.3376 16.5803C79.8871 16.8049 80.3804 17.1644 80.778 17.6301C81.1757 18.0959 81.4667 18.6549 81.628 19.2629L95.5828 71.878C95.8061 72.7198 95.7707 73.6167 95.4816 74.435C95.1926 75.2534 94.6656 75.9494 93.979 76.4194Z" stroke="#363A5A" stroke-width="2" stroke-miterlimit="10"/>
<path d="M29.771 69.8847C29.771 69.8847 30.0332 69.8104 30.4752 69.6701" stroke="#363A5A" stroke-width="2" stroke-linecap="round" stroke-linejoin="round"/>
<path d="M32.6029 68.9376C35.7104 67.7749 40.2705 65.6413 40.3252 63.118C40.3984 59.7656 25.2909 42.993 33.4129 41.9791C60.5289 38.5943 48.3792 62.8492 60.7461 62.3071C65.9707 62.0781 56.3088 54.3527 71.2364 48.7687C73.4493 47.9408 72.35 41.8881 71.6076 38.7236" stroke="#363A5A" stroke-width="2" stroke-linecap="round" stroke-linejoin="round" stroke-dasharray="10.18 15.26"/>
<path d="M71.3204 37.5639C71.1969 37.0879 71.1155 36.8065 71.1155 36.8065" stroke="#363A5A" stroke-width="2" stroke-linecap="round" stroke-linejoin="round"/>
<path opacity="0.22" d="M28.8266 77.877C32.7217 77.877 35.8793 74.4812 35.8793 70.2921C35.8793 66.1032 32.7217 62.7072 28.8266 62.7072C24.9315 62.7072 21.7739 66.1032 21.7739 70.2921C21.7739 74.4812 24.9315 77.877 28.8266 77.877Z" fill="#3DC0CB"/>
<path d="M28.8266 74.6907C31.0853 74.6907 32.9164 72.7215 32.9164 70.2921C32.9164 67.8629 31.0853 65.8935 28.8266 65.8935C26.5679 65.8935 24.7368 67.8629 24.7368 70.2921C24.7368 72.7215 26.5679 74.6907 28.8266 74.6907Z" fill="#3DC0CB"/>
<path d="M28.8265 65.8935C28.1995 65.8932 27.5809 66.0481 27.0185 66.3462C26.4562 66.6444 25.9653 67.0779 25.5837 67.6129C26.3878 67.0252 27.3602 66.7647 28.3265 66.8783C29.293 66.9918 30.1901 67.472 30.8571 68.2325C31.5242 68.9931 31.9174 69.9845 31.9664 71.0286C32.0155 72.0728 31.7169 73.1017 31.1244 73.9305C31.8479 73.402 32.3948 72.6378 32.6848 71.7503C32.9748 70.8627 32.9926 69.8986 32.7355 68.9995C32.4785 68.1003 31.9601 67.3134 31.2565 66.7545C30.553 66.1954 29.7015 65.8937 28.8268 65.8935H28.8265Z" fill="#64C7CF"/>
<path d="M28.8266 74.6907C31.0853 74.6907 32.9164 72.7215 32.9164 70.2921C32.9164 67.8629 31.0853 65.8935 28.8266 65.8935C26.5679 65.8935 24.7368 67.8629 24.7368 70.2921C24.7368 72.7215 26.5679 74.6907 28.8266 74.6907Z" stroke="#363A5A" stroke-width="2" stroke-miterlimit="10"/>
<path d="M30.6903 31.0483L42.4203 33.4396L39.7265 28.3476L30.0181 24.7048C29.4566 24.4942 28.862 24.4045 28.2683 24.441C27.6745 24.4775 27.0933 24.6395 26.5578 24.9176L5.22546 38.8535C5.11087 38.9321 5.02292 39.0482 4.97433 39.1847C4.92589 39.3212 4.9196 39.4708 4.95633 39.6115L8.39661 52.5825L17.7757 50.0883L16.0533 42.6576L30.6903 31.0483Z" fill="#87D5F7" stroke="#259AD6" stroke-width="2" stroke-linecap="round" stroke-linejoin="round"/>
<path d="M49.2795 63.1702L55.9733 64.9827L59.2094 72.9596L51.9985 71.6883L49.2795 63.1702Z" fill="#FDDCBF" stroke="#ECB072" stroke-width="2" stroke-linecap="round" stroke-linejoin="round"/>
<path d="M71.2395 39.2751C65.8017 39.2751 61.3937 37.5791 61.3937 35.4868C61.3937 33.3946 65.8017 31.6984 71.2395 31.6984C76.6773 31.6984 81.0852 33.3946 81.0852 35.4868C81.0852 37.5791 76.6771 39.2751 71.2395 39.2751Z" fill="#EAF4F7"/>
<path d="M74.3291 60.7398L86.6115 54.9897L91.4635 70.8875L71.5749 83.0431L67.9294 71.9786L75.7062 67.274L74.3291 60.7398Z" fill="#FDDCBF" stroke="#ECB072" stroke-width="2" stroke-linecap="round" stroke-linejoin="round"/>
<path d="M85.7359 17.0153C85.7359 7.91803 78.8702 0.592351 70.5509 1.01763C63.1019 1.39852 56.7517 8.22337 56.7517 16.4616C56.7517 28.3789 71.2399 37.568 71.2399 37.568C71.2399 37.568 85.7359 28.3789 85.7359 17.0153Z" fill="#EE4637"/>
<path d="M76.5312 32.9566C75.3887 33.9151 73.9801 34.4332 72.5312 34.4279C71.0822 34.4225 69.677 33.894 68.5408 32.927C64.2528 29.2755 58.0512 22.6456 58.0512 14.8489C58.0618 11.5385 59.08 8.32294 60.95 5.69339C58.3782 8.48647 56.7515 12.2928 56.7515 16.4617C56.7515 28.379 71.2397 37.568 71.2397 37.568C71.2397 37.568 77.1482 33.8221 81.4211 28.1559C79.9128 29.894 78.2777 31.4993 76.5312 32.9566Z" fill="#CD3C27"/>
<path d="M70.5508 1.01763C67.939 1.16227 65.4136 2.07246 63.2482 3.64969C64.9535 2.7653 66.8064 2.25756 68.6972 2.15683C77.0165 1.73187 83.8823 9.05704 83.8823 18.1544C83.8823 27.0644 74.9707 34.6371 71.1221 37.492C71.1975 37.5415 71.2392 37.5682 71.2392 37.5682C71.2392 37.5682 85.7354 28.3787 85.7354 17.0152C85.7357 7.91799 78.8701 0.592353 70.5508 1.01763Z" fill="#F07378"/>
<path d="M71.2395 23.1417C70.0598 23.1417 68.9066 22.7655 67.9258 22.0607C66.9449 21.3557 66.1805 20.354 65.729 19.1819C65.2776 18.0098 65.1593 16.7199 65.3895 15.4756C65.6196 14.2313 66.1877 13.0883 67.0219 12.1912C67.856 11.294 68.9188 10.6832 70.0756 10.4356C71.2326 10.188 72.4319 10.3151 73.5218 10.8006C74.6118 11.2862 75.5432 12.1084 76.1986 13.1632C76.8541 14.2181 77.2038 15.4583 77.2038 16.727C77.2038 18.4283 76.5754 20.0598 75.4569 21.2627C74.3384 22.4657 72.8214 23.1417 71.2395 23.1417Z" fill="white"/>
<path d="M71.2395 23.1417C70.0598 23.1417 68.9066 22.7655 67.9258 22.0607C66.9449 21.3557 66.1805 20.354 65.729 19.1819C65.2776 18.0098 65.1593 16.7199 65.3895 15.4756C65.6196 14.2313 66.1877 13.0883 67.0219 12.1912C67.856 11.294 68.9188 10.6832 70.0756 10.4356C71.2326 10.188 72.4319 10.3151 73.5218 10.8006C74.6118 11.2862 75.5432 12.1084 76.1986 13.1632C76.8541 14.2181 77.2038 15.4583 77.2038 16.727C77.2038 18.4283 76.5754 20.0598 75.4569 21.2627C74.3384 22.4657 72.8214 23.1417 71.2395 23.1417Z" stroke="#363A5A" stroke-width="2" stroke-miterlimit="10"/>
<path d="M85.7359 17.0153C85.7359 7.91803 78.8702 0.592351 70.5509 1.01763C63.1019 1.39852 56.7517 8.22337 56.7517 16.4616C56.7517 28.3789 71.2399 37.568 71.2399 37.568C71.2399 37.568 85.7359 28.3789 85.7359 17.0153Z" stroke="#363A5A" stroke-width="2" stroke-linecap="round" stroke-linejoin="round"/>
</svg>
