<svg width="19" height="19" viewBox="0 0 19 19" fill="none" xmlns="http://www.w3.org/2000/svg">
    <path d="M8.79646 0.70087C6.3985 0.795875 4.13414 1.81051 2.48976 3.52684C0.84538 5.24316 -0.0478355 7.52425 0.00197693 9.88013C0.0517894 12.236 1.04066 14.4787 2.75617 16.1266C4.47168 17.7744 6.77698 18.6959 9.17689 18.6931C11.6079 18.6931 13.9393 17.7449 15.6582 16.0571C17.3772 14.3693 18.3429 12.0802 18.3429 9.69333C18.343 8.47998 18.0931 7.27914 17.6085 6.16302C17.1238 5.04689 16.4142 4.03852 15.5225 3.19852C14.6307 2.35852 13.5752 1.70425 12.4193 1.27503C11.2635 0.845812 10.0312 0.650512 8.79646 0.70087ZM9.17689 2.19351C11.2027 2.19351 13.1455 2.98367 14.578 4.39016C16.0105 5.79664 16.8152 7.70425 16.8152 9.69333C16.8152 11.1767 16.3673 12.6267 15.5279 13.86C14.6886 15.0933 13.4957 16.0546 12.1 16.6223C10.7042 17.1899 9.16842 17.3384 7.68672 17.049C6.20503 16.7597 4.84401 16.0454 3.77576 14.9965C2.70752 13.9476 1.98004 12.6113 1.68531 11.1565C1.39058 9.70165 1.54185 8.19368 2.11998 6.82327C2.69811 5.45286 3.67713 4.28155 4.93325 3.45746C6.18937 2.63337 7.66617 2.19351 9.17689 2.19351ZM8.39068 5.94195C8.27565 5.94541 8.1629 5.97435 8.06086 6.0266C7.95882 6.07885 7.87012 6.15307 7.80139 6.2437L5.73963 8.94335H3.83005C3.62747 8.94335 3.43318 9.02236 3.28993 9.16301C3.14669 9.30366 3.06621 9.49442 3.06621 9.69333C3.06621 9.89223 3.14669 10.083 3.28993 10.2236C3.43318 10.3643 3.62747 10.4433 3.83005 10.4433H6.12155C6.24026 10.4434 6.35735 10.4163 6.46352 10.3641C6.5697 10.312 6.66204 10.2363 6.73322 10.143L8.18331 8.23877L9.98697 12.9628C10.0351 13.0894 10.1173 13.2009 10.2247 13.2855C10.3321 13.3701 10.4608 13.4246 10.5971 13.4432H10.7046C10.8233 13.4433 10.9404 13.4162 11.0465 13.3641C11.1527 13.3119 11.245 13.2362 11.3162 13.143L13.378 10.4433H14.5237C14.7263 10.4433 14.9206 10.3643 15.0638 10.2236C15.2071 10.083 15.2876 9.89223 15.2876 9.69333C15.2876 9.49442 15.2071 9.30366 15.0638 9.16301C14.9206 9.02236 14.7263 8.94335 14.5237 8.94335H12.9961C12.8774 8.94329 12.7603 8.9704 12.6541 9.02252C12.5479 9.07465 12.4556 9.15035 12.3844 9.24363L10.9343 11.1479L9.13064 6.4312C9.07507 6.2838 8.97374 6.15728 8.84096 6.06949C8.70819 5.9817 8.55068 5.93709 8.39068 5.94195Z" fill="black"/>
</svg>
