<svg width="19" height="19" viewBox="0 0 19 19" fill="none" xmlns="http://www.w3.org/2000/svg">
    <path d="M0.299445 0.847413C0.123533 0.847413 0 1.00691 0 1.17979V18.515C0 18.6879 0.123533 18.8474 0.299445 18.8474H13.6082C13.7843 18.8474 13.9088 18.6879 13.9088 18.5148V11.7598L18.1699 7.57555C18.2954 7.4545 18.2973 7.2565 18.1742 7.13312L16.4786 5.46618C16.3511 5.34404 16.1477 5.34394 16.02 5.46595L13.9088 7.52626V4.34768C13.9122 4.26571 13.8817 4.18587 13.8244 4.12619L10.6028 0.948831C10.5459 0.887383 10.4663 0.85086 10.3818 0.847412L0.299445 0.847413ZM0.637652 1.4735H10.0829V4.34768C10.0791 4.42677 10.1093 4.5038 10.1661 4.55997C10.2229 4.61614 10.3012 4.64629 10.3818 4.64306H13.2711V8.15097L10.1047 11.2618C10.0712 11.2938 10.0463 11.3334 10.0321 11.3772L9.58253 12.7039H2.69803C2.52195 12.7039 2.37921 12.8441 2.37921 13.017C2.37921 13.1899 2.52195 13.33 2.69803 13.33H9.36949L9.17738 13.9013C9.13914 14.0127 9.16903 14.1358 9.25436 14.2182C9.27676 14.2402 9.30215 14.2691 9.32909 14.2691H2.69804C2.52195 14.2691 2.37921 14.4093 2.37921 14.5822C2.37921 14.7551 2.52195 14.8952 2.69804 14.8952H11.187C11.3631 14.8952 11.5058 14.7551 11.5058 14.5822C11.5058 14.4093 11.3631 14.2691 11.187 14.2691H9.64496L12.1513 13.4534C12.1953 13.4391 12.2351 13.4143 12.2669 13.3811L13.2711 12.3872V18.2213H0.637654L0.637652 1.4735ZM10.7205 1.93558L12.8385 4.01698H10.7205V1.93558ZM16.2552 6.13002L17.5026 7.35483L16.5368 8.30527L15.2872 7.07817L16.2552 6.13002ZM14.8358 7.52037L16.0865 8.74832L12.0498 12.7206L10.7901 11.4838L14.8358 7.52037ZM2.69804 11.1387C2.52195 11.1387 2.37921 11.2789 2.37921 11.4518C2.37921 11.6247 2.52195 11.7648 2.69804 11.7648H7.20169C7.37777 11.7648 7.52052 11.6247 7.52052 11.4518C7.52052 11.2789 7.37777 11.1387 7.20169 11.1387H2.69804ZM10.478 12.0627L11.4602 13.0271L9.98457 13.5116L10.478 12.0627ZM2.69804 15.8344C2.52195 15.8344 2.37921 15.9745 2.37921 16.1474C2.37921 16.3203 2.52195 16.4605 2.69804 16.4605H11.187C11.3631 16.4605 11.5058 16.3203 11.5058 16.1474C11.5058 15.9745 11.3631 15.8344 11.187 15.8344H2.69804Z" fill="black"/>
</svg>
