<svg width="19" height="19" viewBox="0 0 19 19" fill="none" xmlns="http://www.w3.org/2000/svg">
    <path d="M14.2639 0.546635C13.0531 0.542404 10.5266 0.502917 9.17357 1.83279L8.93227 2.06972V2.081C7.48734 3.5096 7.31929 5.64474 8.35774 7.2482L0.819966 14.0175L0.808476 14.0287C0.478124 14.3531 0.130536 14.8975 0.0271209 15.5744C-0.0762938 16.2513 0.101809 17.058 0.808476 17.7518C1.51514 18.4457 2.33671 18.6206 3.02615 18.519C3.71558 18.4175 4.26999 18.0762 4.60035 17.7518H4.61184V17.7406C4.61184 17.7406 6.3426 15.8184 8.09346 13.9046C8.96961 12.9471 9.84577 11.9952 10.518 11.2872C10.8541 10.9332 11.1442 10.6385 11.3453 10.441C11.4013 10.386 11.43 10.355 11.4717 10.3169C13.1062 11.3746 15.3038 11.228 16.7688 9.78668L17.0101 9.54975C17.6708 8.90244 17.9767 7.95616 18.1362 7.03384C18.2956 6.11153 18.2942 5.2005 18.297 4.59691C18.2985 4.4587 18.2956 4.32332 18.1821 4.19075C18.0687 4.05819 17.8561 4.02293 17.7455 4.04409C17.5243 4.08781 17.4353 4.20204 17.4353 4.20204L17.4238 4.21332C17.4238 4.21332 15.321 6.28782 15.0337 6.57128C15.0222 6.57833 15.0194 6.57974 14.9993 6.58256C14.9332 6.59243 14.8298 6.60371 14.7005 6.60512C14.4434 6.60795 14.0901 6.59102 13.7468 6.56C13.4035 6.52897 13.0588 6.47679 12.7931 6.42461C12.6595 6.39782 12.5475 6.36961 12.4713 6.34564C12.4441 6.33717 12.4283 6.33153 12.4139 6.32307C12.4053 6.31038 12.3981 6.29769 12.3909 6.27794C12.3665 6.20602 12.3478 6.08897 12.322 5.96204C12.2703 5.7082 12.2243 5.3782 12.1956 5.04819C12.1669 4.71819 12.1511 4.38396 12.1611 4.13434C12.1669 4.00883 12.1712 3.90729 12.1841 3.84101C12.1913 3.80857 12.2028 3.79024 12.2071 3.7846C12.5259 3.47152 14.6201 1.42664 14.6201 1.42664L14.6316 1.41536V1.40407C14.6316 1.40407 14.7407 1.32792 14.7924 1.12202C14.8183 1.01907 14.8097 0.818815 14.6775 0.693302C14.5454 0.567789 14.4032 0.546635 14.2639 0.546635ZM13.7813 1.26869C13.3245 1.71715 11.9097 3.10626 11.6785 3.33331C11.5406 3.4687 11.5306 3.58434 11.5061 3.70562C11.4817 3.82691 11.4659 3.9637 11.4602 4.11178C11.4473 4.40652 11.4645 4.75204 11.4947 5.1046C11.5248 5.45717 11.5722 5.80692 11.6325 6.09743C11.6627 6.24269 11.6972 6.37807 11.736 6.4923C11.7747 6.60653 11.7992 6.70102 11.9198 6.81948C12.0433 6.94077 12.1353 6.96192 12.253 7C12.3708 7.03808 12.5044 7.07192 12.6552 7.10154C12.9568 7.16077 13.326 7.20308 13.6893 7.23692C14.0527 7.27077 14.4046 7.29615 14.7005 7.29333C14.8484 7.29192 14.9863 7.27641 15.1027 7.25949C15.219 7.24256 15.3181 7.27359 15.4819 7.11282C15.6628 6.93372 17.1063 5.49807 17.5731 5.03691C17.5645 5.59961 17.566 6.22999 17.4467 6.92102C17.3002 7.77282 17.0044 8.58513 16.516 9.06462L16.2747 9.30155C14.8542 10.6977 12.6681 10.661 11.2763 9.29027L9.43785 7.48513C8.0475 6.11294 8.01159 3.9637 9.42636 2.56613L9.66766 2.31793C10.5826 1.41818 12.5144 1.28984 13.7813 1.26869ZM8.75991 7.76718C8.82024 7.83487 8.87769 7.90539 8.94376 7.97026L10.7822 9.7754C10.8325 9.82476 10.89 9.86424 10.9431 9.91078C10.9173 9.93617 10.9029 9.95027 10.8742 9.97847C10.6616 10.1858 10.3743 10.4791 10.0354 10.8359C9.35742 11.5495 8.47552 12.5057 7.59937 13.4646C5.85138 15.3756 4.13929 17.2893 4.12923 17.3006L4.11774 17.3118C3.89368 17.5276 3.43406 17.7998 2.92273 17.8759C2.40566 17.9521 1.8498 17.8604 1.27959 17.3006C0.70937 16.7407 0.604519 16.185 0.68208 15.6759C0.759641 15.1739 1.04834 14.7226 1.2681 14.5026L1.27959 14.4913L8.75991 7.76718Z" fill="black"/>
</svg>
